<svg xmlns="http://www.w3.org/2000/svg" width="55" height="46.901" viewBox="0 0 55 46.901">
  <path id="Контур_38" data-name="Контур 38" d="M136.747,150.54q-9.034-21.8-18.066-43.607a5.334,5.334,0,0,0-9.855,0q-9.034,21.8-18.065,43.607A5.848,5.848,0,0,0,98.807,158a33.251,33.251,0,0,1,29.892,0,5.85,5.85,0,0,0,8.048-7.457Zm-14.629-5.827a1.657,1.657,0,0,1-1.786.42,19.359,19.359,0,0,0-13.158,0,1.679,1.679,0,0,1-2.121-2.222q3.575-8.614,7.15-17.23a1.678,1.678,0,0,1,3.1,0q3.575,8.615,7.151,17.23A1.658,1.658,0,0,1,122.118,144.713Z" transform="translate(-103.64 137.204) rotate(-90)" fill="#fff"/>
</svg>
