<svg id="Сгруппировать_64" data-name="Сгруппировать 64" xmlns="http://www.w3.org/2000/svg" width="30.743" height="30" viewBox="0 0 30.743 30">
  <path id="Контур_7" data-name="Контур 7" d="M48.481,19.031a1.143,1.143,0,0,0-.943,0c-.328.147-8.039,3.711-8.039,12.666,0,7.242,5.422,10.924,7.364,12.011v4.08a1.143,1.143,0,0,0,2.285,0V43.7c1.935-1.1,7.364-4.815,7.364-12.007C56.512,22.808,48.809,19.181,48.481,19.031ZM48,41.726c-1.54-.852-6.218-3.942-6.218-10.032A11.848,11.848,0,0,1,48,21.358a12.055,12.055,0,0,1,6.23,10.336C54.227,37.738,49.539,40.863,48,41.726Z" transform="translate(-32.724 -18.928)" fill="#fff"/>
  <path id="Контур_8" data-name="Контур 8" d="M18.374,49.915a1.143,1.143,0,0,0,.866-1.887,10.648,10.648,0,0,1-2.659-7.108,11.182,11.182,0,0,1,2.761-7.487,1.142,1.142,0,1,0-1.733-1.489A13.408,13.408,0,0,0,14.3,40.92a12.873,12.873,0,0,0,3.21,8.6A1.14,1.14,0,0,0,18.374,49.915Z" transform="translate(-14.297 -28.154)" fill="#fff"/>
  <path id="Контур_9" data-name="Контур 9" d="M109.356,31.821a1.143,1.143,0,0,0-.123,1.611,10.646,10.646,0,0,1,2.659,7.108,11.183,11.183,0,0,1-2.761,7.487,1.142,1.142,0,1,0,1.733,1.489,13.409,13.409,0,0,0,3.313-8.976,12.873,12.873,0,0,0-3.21-8.6A1.142,1.142,0,0,0,109.356,31.821Z" transform="translate(-83.435 -28.154)" fill="#fff"/>
</svg>
