<svg xmlns="http://www.w3.org/2000/svg" width="76.4" height="59.934" viewBox="0 0 76.4 59.934">
  <g id="Сгруппировать_129" data-name="Сгруппировать 129" transform="translate(-2782.322 -1732.86)" opacity="0.5">
    <g id="Сгруппировать_127" data-name="Сгруппировать 127" transform="translate(2783.022 1733.56)">
      <path id="Контур_122" data-name="Контур 122" d="M2841.718,1741.215a16.2,16.2,0,0,0-3.991.516,20.015,20.015,0,0,0-34.955,5.034,14,14,0,0,0-5.62-1.175,14.217,14.217,0,0,0,0,28.432h44.565a16.4,16.4,0,0,0,0-32.807Z" transform="translate(-2783.022 -1733.56)" fill="none" stroke="#fff" stroke-linecap="round" stroke-linejoin="round" stroke-width="1.4"/>
      <path id="Контур_123" data-name="Контур 123" d="M3041.767,1786.322a12.343,12.343,0,0,0-9.5-4.45" transform="translate(-2973.352 -1770.398)" fill="none" stroke="#fff" stroke-linecap="round" stroke-linejoin="round" stroke-width="1.4"/>
      <path id="Контур_124" data-name="Контур 124" d="M3081.711,1817.906a12.316,12.316,0,0,0-1.146-5.205" transform="translate(-3010.43 -1793.896)" fill="none" stroke="#fff" stroke-linecap="round" stroke-linejoin="round" stroke-width="1.4"/>
      <path id="Контур_125" data-name="Контур 125" d="M2863.795,1792.115a19.141,19.141,0,0,1,.965-6.02" transform="translate(-2844.77 -1773.606)" fill="none" stroke="#fff" stroke-linecap="round" stroke-linejoin="round" stroke-width="1.4"/>
      <path id="Контур_126" data-name="Контур 126" d="M2994.033,1768.595a16.155,16.155,0,0,1,8.884-2.726" transform="translate(-2944.25 -1758.203)" fill="none" stroke="#fff" stroke-linecap="round" stroke-linejoin="round" stroke-width="1.4"/>
    </g>
    <g id="Сгруппировать_128" data-name="Сгруппировать 128" transform="translate(2799.946 1777.907)">
      <path id="Контур_127" data-name="Контур 127" d="M2991.393,1921.43c-.448.627-4.368,6.2-4.368,8.729a5.088,5.088,0,0,0,10.175,0c0-2.531-3.921-8.1-4.368-8.729a.884.884,0,0,0-1.439,0Z" transform="translate(-2956.047 -1921.06)" fill="none" stroke="#fff" stroke-linecap="round" stroke-linejoin="round" stroke-width="1.4"/>
      <path id="Контур_128" data-name="Контур 128" d="M2924.733,1921.43c-.447.627-4.368,6.2-4.368,8.729a5.088,5.088,0,0,0,10.175,0c0-2.531-3.921-8.1-4.368-8.729a.884.884,0,0,0-1.439,0Z" transform="translate(-2904.876 -1921.06)" fill="none" stroke="#fff" stroke-linecap="round" stroke-linejoin="round" stroke-width="1.4"/>
      <path id="Контур_129" data-name="Контур 129" d="M2858.073,1921.43c-.448.627-4.368,6.2-4.368,8.729a5.088,5.088,0,0,0,10.175,0c0-2.531-3.921-8.1-4.368-8.729a.884.884,0,0,0-1.439,0Z" transform="translate(-2853.704 -1921.06)" fill="none" stroke="#fff" stroke-linecap="round" stroke-linejoin="round" stroke-width="1.4"/>
    </g>
  </g>
</svg>
