<svg xmlns="http://www.w3.org/2000/svg" width="76.4" height="57.907" viewBox="0 0 76.4 57.907">
  <g id="Сгруппировать_133" data-name="Сгруппировать 133" transform="translate(-3244.544 -1732.86)" opacity="0.5">
    <g id="Сгруппировать_130" data-name="Сгруппировать 130" transform="translate(3245.244 1733.56)">
      <path id="Контур_130" data-name="Контур 130" d="M3303.94,1773.777a16.3,16.3,0,1,0-3.991-32.1,20.07,20.07,0,0,0-34.955,5,14.129,14.129,0,1,0-5.62,27.093h14.453" transform="translate(-3245.244 -1733.56)" fill="none" stroke="#fff" stroke-linecap="round" stroke-linejoin="round" stroke-width="1.4"/>
      <path id="Контур_131" data-name="Контур 131" d="M3504.118,1786.383a12.51,12.51,0,0,0-9.631-4.511" transform="translate(-3435.791 -1770.495)" fill="none" stroke="#fff" stroke-linecap="round" stroke-linejoin="round" stroke-width="1.4"/>
      <path id="Контур_132" data-name="Контур 132" d="M3543.949,1817.977a12.486,12.486,0,0,0-1.161-5.276" transform="translate(-3472.718 -1794.064)" fill="none" stroke="#fff" stroke-linecap="round" stroke-linejoin="round" stroke-width="1.4"/>
      <path id="Контур_133" data-name="Контур 133" d="M3326.017,1792.2a19.4,19.4,0,0,1,.978-6.1" transform="translate(-3306.995 -1773.724)" fill="none" stroke="#fff" stroke-linecap="round" stroke-linejoin="round" stroke-width="1.4"/>
      <path id="Контур_134" data-name="Контур 134" d="M3456.255,1768.632a16.373,16.373,0,0,1,9-2.763" transform="translate(-3406.563 -1758.26)" fill="none" stroke="#fff" stroke-linecap="round" stroke-linejoin="round" stroke-width="1.4"/>
    </g>
    <g id="Сгруппировать_132" data-name="Сгруппировать 132" transform="translate(3269.953 1752.566)">
      <path id="Контур_135" data-name="Контур 135" d="M3354.209,1839.644c1.1-7.021-3.152-10.131-3.333-10.26l-.709-.5.785-.367c3.9-1.828,2.307-6.964,2.238-7.182l-.372-1.158,1.081.557a12.645,12.645,0,0,0,7.764.86l.333-.079,2.776,3.983c1.206-3.672,1.963-7.026,1.793-8.029l-.157-.927.858.384c.063.028,6.3,2.76,9.488-1l1.409-1.663-.537,2.112c-1.212,4.765,4.631,8.274,4.69,8.309l.808.476-.844.409c-.915.444-3.208,3.007-5.5,6.119l4.855-.049.129.318a12.646,12.646,0,0,0,5.2,5.826l1.084.559-1.163.367c-.053.017-5.33,1.737-4.552,5.989l.156.853-.818-.289c-.051-.017-5.185-1.75-10.291,3.236l-.375.366-.35-.39a16.238,16.238,0,0,0-4.14-3.122,10.326,10.326,0,0,0-3.595-1.139l-.192-.021-.129-.144a10.332,10.332,0,0,0-3.013-2.267,16.216,16.216,0,0,0-4.945-1.561l-.521-.06Z" transform="translate(-3350.167 -1814.264)" fill="none" stroke="#fff" stroke-linecap="round" stroke-linejoin="round" stroke-width="1.4"/>
      <line id="Линия_25" data-name="Линия 25" x1="11.682" y2="22.66" transform="translate(8.792 14.598)" fill="none" stroke="#fff" stroke-linecap="round" stroke-linejoin="round" stroke-width="1.4"/>
      <g id="Сгруппировать_131" data-name="Сгруппировать 131" transform="translate(9.776 16.568)">
        <line id="Линия_26" data-name="Линия 26" x1="5.429" y1="8.252" fill="none" stroke="#fff" stroke-linecap="round" stroke-linejoin="round" stroke-width="1.4"/>
        <line id="Линия_27" data-name="Линия 27" y1="0.364" x2="9.871" transform="translate(5.429 7.888)" fill="none" stroke="#fff" stroke-linecap="round" stroke-linejoin="round" stroke-width="1.4"/>
      </g>
    </g>
  </g>
</svg>
