<svg xmlns="http://www.w3.org/2000/svg" width="65.843" height="60.315" viewBox="0 0 65.843 60.315">
  <g id="Сгруппировать_136" data-name="Сгруппировать 136" transform="translate(533.733 -381.924)" opacity="0.5">
    <path id="Контур_136" data-name="Контур 136" d="M-463.886,479.484a20.913,20.913,0,0,1-12.221-19.024,20.91,20.91,0,0,1,20.91-20.91,20.91,20.91,0,0,1,20.91,20.91,20.911,20.911,0,0,1-19.3,20.849" transform="translate(-45.271 -45.272)" fill="none" stroke="#fff" stroke-linecap="round" stroke-linejoin="round" stroke-width="1.4"/>
    <line id="Линия_28" data-name="Линия 28" y1="7.541" transform="translate(-500.812 382.624)" fill="none" stroke="#fff" stroke-linecap="round" stroke-linejoin="round" stroke-width="1.4"/>
    <line id="Линия_29" data-name="Линия 29" x2="7.541" transform="translate(-476.131 414.845)" fill="none" stroke="#fff" stroke-linecap="round" stroke-linejoin="round" stroke-width="1.4"/>
    <line id="Линия_30" data-name="Линия 30" x2="7.541" transform="translate(-533.033 414.845)" fill="none" stroke="#fff" stroke-linecap="round" stroke-linejoin="round" stroke-width="1.4"/>
    <line id="Линия_31" data-name="Линия 31" y1="5.332" x2="5.332" transform="translate(-483.36 392.061)" fill="none" stroke="#fff" stroke-linecap="round" stroke-linejoin="round" stroke-width="1.4"/>
    <line id="Линия_32" data-name="Линия 32" y1="5.332" x2="5.332" transform="translate(-523.596 432.297)" fill="none" stroke="#fff" stroke-linecap="round" stroke-linejoin="round" stroke-width="1.4"/>
    <line id="Линия_33" data-name="Линия 33" x2="5.332" y2="5.332" transform="translate(-483.36 432.297)" fill="none" stroke="#fff" stroke-linecap="round" stroke-linejoin="round" stroke-width="1.4"/>
    <line id="Линия_34" data-name="Линия 34" x2="5.332" y2="5.332" transform="translate(-523.596 392.061)" fill="none" stroke="#fff" stroke-linecap="round" stroke-linejoin="round" stroke-width="1.4"/>
    <g id="Сгруппировать_134" data-name="Сгруппировать 134" transform="translate(-526.266 389.39)">
      <line id="Линия_35" data-name="Линия 35" x1="1.02" y1="2.545" transform="translate(15.254)" fill="none" stroke="#fff" stroke-linecap="round" stroke-linejoin="round" stroke-width="1.4"/>
      <line id="Линия_36" data-name="Линия 36" x1="1.02" y1="2.545" transform="translate(34.635 48.364)" fill="none" stroke="#fff" stroke-linecap="round" stroke-linejoin="round" stroke-width="1.4"/>
      <line id="Линия_37" data-name="Линия 37" y1="1.02" x2="2.545" transform="translate(48.364 15.254)" fill="none" stroke="#fff" stroke-linecap="round" stroke-linejoin="round" stroke-width="1.4"/>
      <line id="Линия_38" data-name="Линия 38" y1="1.02" x2="2.545" transform="translate(0 34.635)" fill="none" stroke="#fff" stroke-linecap="round" stroke-linejoin="round" stroke-width="1.4"/>
    </g>
    <line id="Линия_39" data-name="Линия 39" y1="2.521" x2="1.079" transform="translate(-491.104 389.633)" fill="none" stroke="#fff" stroke-linecap="round" stroke-linejoin="round" stroke-width="1.4"/>
    <line id="Линия_40" data-name="Линия 40" x2="2.521" y2="1.079" transform="translate(-478.121 424.553)" fill="none" stroke="#fff" stroke-linecap="round" stroke-linejoin="round" stroke-width="1.4"/>
    <line id="Линия_41" data-name="Линия 41" x2="2.521" y2="1.079" transform="translate(-526.024 404.059)" fill="none" stroke="#fff" stroke-linecap="round" stroke-linejoin="round" stroke-width="1.4"/>
    <g id="Сгруппировать_135" data-name="Сгруппировать 135" transform="translate(-513.496 402.978)">
      <path id="Контур_137" data-name="Контур 137" d="M-429.059,503.7a.74.74,0,0,1,.368.344c.956,1.873,2.244,2.941,3.537,2.928,1.255-.009,2.478-1.041,3.356-2.83a.739.739,0,0,1,.917-.369c1.873.683,3.471.581,4.384-.279.939-.886,1.13-2.549.526-4.562a.741.741,0,0,1,.372-.872c1.872-.957,2.94-2.246,2.93-3.536-.01-1.254-1.043-2.478-2.832-3.358a.739.739,0,0,1-.369-.917c.684-1.872.582-3.468-.278-4.382-.887-.941-2.548-1.131-4.562-.527a.739.739,0,0,1-.87-.371c-.958-1.871-2.249-2.935-3.537-2.929-1.255.011-2.478,1.042-3.356,2.831a.739.739,0,0,1-.917.369c-1.873-.683-3.471-.581-4.384.279-.939.885-1.13,2.548-.525,4.562a.741.741,0,0,1-.372.871c-1.872.957-2.94,2.246-2.93,3.536.01,1.254,1.043,2.478,2.832,3.358a.739.739,0,0,1,.369.917c-.684,1.872-.582,3.468.279,4.381.881.938,2.546,1.132,4.561.527A.74.74,0,0,1-429.059,503.7Z" transform="translate(437.603 -482.044)" fill="none" stroke="#fff" stroke-linecap="round" stroke-linejoin="round" stroke-width="1.4"/>
      <circle id="Эллипс_12" data-name="Эллипс 12" cx="5.373" cy="5.373" r="5.373" transform="translate(5.409 15.282) rotate(-66.748)" fill="none" stroke="#fff" stroke-linecap="round" stroke-linejoin="round" stroke-width="1.4"/>
      <path id="Контур_138" data-name="Контур 138" d="M-407.172,622.965c-7.824-2.408-11.924,3.475-13.141,5.658,3.428,1.371,6.325,1.468,8.622.286C-408.854,627.449-407.607,624.361-407.172,622.965Z" transform="translate(423.853 -593.661)" fill="none" stroke="#fff" stroke-linecap="round" stroke-linejoin="round" stroke-width="1.4"/>
      <line id="Линия_42" data-name="Линия 42" x1="6.766" y2="15.857" transform="translate(1.426 22.485)" fill="none" stroke="#fff" stroke-linecap="round" stroke-linejoin="round" stroke-width="1.4"/>
    </g>
  </g>
</svg>
